<?xml version="1.0" encoding="UTF-8" standalone="no"?>
<svg
   xmlns:dc="http://purl.org/dc/elements/1.1/"
   xmlns:cc="http://creativecommons.org/ns#"
   xmlns:rdf="http://www.w3.org/1999/02/22-rdf-syntax-ns#"
   xmlns:svg="http://www.w3.org/2000/svg"
   xmlns="http://www.w3.org/2000/svg"
   xmlns:sodipodi="http://sodipodi.sourceforge.net/DTD/sodipodi-0.dtd"
   xmlns:inkscape="http://www.inkscape.org/namespaces/inkscape"
   version="1.1"
   width="76"
   height="76"
   viewBox="0 0 76.00 76.00"
   enable-background="new 0 0 76.00 76.00"
   xml:space="preserve"
   id="svg2"
   inkscape:version="0.48.4 r9939"
   sodipodi:docname="appbar.lightbulb.hue.on.svg"><metadata
   id="metadata10"><rdf:RDF><cc:Work
       rdf:about=""><dc:format>image/svg+xml</dc:format><dc:type
         rdf:resource="http://purl.org/dc/dcmitype/StillImage" /></cc:Work></rdf:RDF></metadata><defs
   id="defs8" /><sodipodi:namedview
   pagecolor="#ffffff"
   bordercolor="#666666"
   borderopacity="1"
   objecttolerance="10"
   gridtolerance="10"
   guidetolerance="10"
   inkscape:pageopacity="0"
   inkscape:pageshadow="2"
   inkscape:window-width="1208"
   inkscape:window-height="843"
   id="namedview6"
   showgrid="false"
   inkscape:zoom="12.421053"
   inkscape:cx="32.180175"
   inkscape:cy="39.644795"
   inkscape:window-x="-32000"
   inkscape:window-y="-32000"
   inkscape:window-maximized="0"
   inkscape:current-layer="svg2" />
	<path
   d="m 38,14.0001 c 0.5523,0 1,0.4477 1,1 l 0,3 c 0,0.5522 -0.4477,1 -1,1 -0.5523,0 -1,-0.4478 -1,-1 l 0,-3 c 0,-0.5523 0.4477,-1 1,-1 z m 9.2499,1.585 c 0.4782,0.2761 0.6421,0.8877 0.366,1.366 l -1.5,2.598 c -0.2762,0.4783 -0.8877,0.6422 -1.366,0.3661 -0.4783,-0.2762 -0.6422,-0.8878 -0.3661,-1.3661 l 1.5,-2.598 c 0.2762,-0.4783 0.8878,-0.6422 1.3661,-0.366 z m 8.1648,4.8284 c 0.2593,0.4877 0.0741,1.0932 -0.4135,1.3524 l -2.6488,1.4084 C 51.8647,23.4336 51.2592,23.2485 51,22.7609 50.7407,22.2732 50.9258,21.6677 51.4134,21.4084 L 54.0623,20 c 0.4876,-0.2592 1.0931,-0.0741 1.3524,0.4135 z M 56.25,29.7298 C 56.1351,30.27 55.6041,30.6148 55.0639,30.5 l -2.9344,-0.6237 c -0.5402,-0.1148 -0.8851,-0.6459 -0.7703,-1.1861 0.1149,-0.5402 0.6459,-0.885 1.1861,-0.7702 l 2.9344,0.6237 c 0.5402,0.1148 0.8851,0.6459 0.7703,1.1861 z m -2.4868,6.4967 c -0.2068,0.5121 -0.7897,0.7595 -1.3018,0.5526 l -2.7815,-1.1238 c -0.512,-0.2069 -0.7594,-0.7897 -0.5526,-1.3018 0.2069,-0.5121 0.7898,-0.7595 1.3018,-0.5526 l 2.7816,1.1238 c 0.512,0.2069 0.7594,0.7897 0.5525,1.3018 z M 28.7501,15.585 c 0.4783,-0.2761 1.0899,-0.1122 1.366,0.3661 l 1.5,2.598 c 0.2762,0.4783 0.1123,1.0899 -0.366,1.366 -0.4783,0.2762 -1.0899,0.1123 -1.366,-0.366 l -1.5,-2.598 c -0.2762,-0.4783 -0.1123,-1.0899 0.366,-1.3661 z m -8.1648,4.8285 C 20.8446,19.9258 21.4501,19.7407 21.9377,20 l 2.6488,1.4084 c 0.4877,0.2593 0.6728,0.8648 0.4135,1.3524 -0.2593,0.4877 -0.8648,0.6728 -1.3524,0.4135 L 20.9988,21.7659 C 20.5111,21.5066 20.326,20.9011 20.5853,20.4135 z M 19.75,29.7297 c -0.1148,-0.5402 0.23,-1.0712 0.7703,-1.186 L 23.4547,27.92 c 0.5402,-0.1149 1.0712,0.23 1.186,0.7702 0.1148,0.5402 -0.23,1.0712 -0.7702,1.1861 L 20.9361,30.5 C 20.3959,30.6148 19.8648,30.27 19.75,29.7297 z m 2.4867,6.4968 c -0.2069,-0.5121 0.0405,-1.0949 0.5526,-1.3018 l 2.7815,-1.1238 c 0.5121,-0.2069 1.0949,0.0405 1.3018,0.5526 0.2069,0.512 -0.0405,1.0949 -0.5526,1.3018 l -2.7815,1.1238 c -0.512,0.2069 -1.0949,-0.0405 -1.3018,-0.5526 z"
   id="path4"
   inkscape:connector-curvature="0"
   style="fill:#000000;fill-opacity:1;stroke-linejoin:round"
   sodipodi:nodetypes="sssssssccccccccccccccccccccccsccccccccccccccccccccccscccssscscs" />
</svg>